<svg viewBox="0 0 768.2385864257812 400" xmlns="http://www.w3.org/2000/svg"><g><g><g><g><g><line x1="61.953125" y1="377" x2="56.953125" y2="377" style="visibility: inherit;" fill="rgb(0, 0, 0)" stroke="rgb(204, 204, 204)" stroke-width="1px"></line><line x1="61.953125" y1="339.3" x2="56.953125" y2="339.3" style="visibility: inherit;" fill="rgb(0, 0, 0)" stroke="rgb(204, 204, 204)" stroke-width="1px"></line><line x1="61.953125" y1="301.6" x2="56.953125" y2="301.6" style="visibility: inherit;" fill="rgb(0, 0, 0)" stroke="rgb(204, 204, 204)" stroke-width="1px"></line><line x1="61.953125" y1="263.9" x2="56.953125" y2="263.9" style="visibility: inherit;" fill="rgb(0, 0, 0)" stroke="rgb(204, 204, 204)" stroke-width="1px"></line><line x1="61.953125" y1="226.2" x2="56.953125" y2="226.2" style="visibility: inherit;" fill="rgb(0, 0, 0)" stroke="rgb(204, 204, 204)" stroke-width="1px"></line><line x1="61.953125" y1="188.5" x2="56.953125" y2="188.5" style="visibility: inherit;" fill="rgb(0, 0, 0)" stroke="rgb(204, 204, 204)" stroke-width="1px"></line><line x1="61.953125" y1="150.8" x2="56.953125" y2="150.8" style="visibility: inherit;" fill="rgb(0, 0, 0)" stroke="rgb(204, 204, 204)" stroke-width="1px"></line><line x1="61.953125" y1="113.10000000000002" x2="56.953125" y2="113.10000000000002" style="visibility: inherit;" fill="rgb(0, 0, 0)" stroke="rgb(204, 204, 204)" stroke-width="1px"></line><line x1="61.953125" y1="75.39999999999998" x2="56.953125" y2="75.39999999999998" style="visibility: inherit;" fill="rgb(0, 0, 0)" stroke="rgb(204, 204, 204)" stroke-width="1px"></line><line x1="61.953125" y1="37.70000000000003" x2="56.953125" y2="37.70000000000003" style="visibility: inherit;" fill="rgb(0, 0, 0)" stroke="rgb(204, 204, 204)" stroke-width="1px"></line><line x1="61.953125" y1="0" x2="56.953125" y2="0" style="visibility: inherit;" fill="rgb(0, 0, 0)" stroke="rgb(204, 204, 204)" stroke-width="1px"></line></g><g transform="translate(51.953125, 0)"><text x="0" y="377" dx="0em" dy="0.3em" style="text-anchor: end; visibility: hidden; font-family: Roboto, sans-serif; font-size: 12px; font-weight: 200;" fill="rgb(33, 33, 33)" stroke="none" stroke-width="1px">0</text><text x="0" y="339.3" dx="0em" dy="0.3em" style="text-anchor: end; visibility: inherit; font-family: Roboto, sans-serif; font-size: 12px; font-weight: 200;" fill="rgb(33, 33, 33)" stroke="none" stroke-width="1px">2e-3</text><text x="0" y="301.6" dx="0em" dy="0.3em" style="text-anchor: end; visibility: inherit; font-family: Roboto, sans-serif; font-size: 12px; font-weight: 200;" fill="rgb(33, 33, 33)" stroke="none" stroke-width="1px">4e-3</text><text x="0" y="263.9" dx="0em" dy="0.3em" style="text-anchor: end; visibility: inherit; font-family: Roboto, sans-serif; font-size: 12px; font-weight: 200;" fill="rgb(33, 33, 33)" stroke="none" stroke-width="1px">6e-3</text><text x="0" y="226.2" dx="0em" dy="0.3em" style="text-anchor: end; visibility: inherit; font-family: Roboto, sans-serif; font-size: 12px; font-weight: 200;" fill="rgb(33, 33, 33)" stroke="none" stroke-width="1px">8e-3</text><text x="0" y="188.5" dx="0em" dy="0.3em" style="text-anchor: end; visibility: inherit; font-family: Roboto, sans-serif; font-size: 12px; font-weight: 200;" fill="rgb(33, 33, 33)" stroke="none" stroke-width="1px">0.01</text><text x="0" y="150.8" dx="0em" dy="0.3em" style="text-anchor: end; visibility: inherit; font-family: Roboto, sans-serif; font-size: 12px; font-weight: 200;" fill="rgb(33, 33, 33)" stroke="none" stroke-width="1px">0.012</text><text x="0" y="113.10000000000002" dx="0em" dy="0.3em" style="text-anchor: end; visibility: inherit; font-family: Roboto, sans-serif; font-size: 12px; font-weight: 200;" fill="rgb(33, 33, 33)" stroke="none" stroke-width="1px">0.014</text><text x="0" y="75.39999999999998" dx="0em" dy="0.3em" style="text-anchor: end; visibility: inherit; font-family: Roboto, sans-serif; font-size: 12px; font-weight: 200;" fill="rgb(33, 33, 33)" stroke="none" stroke-width="1px">0.016</text><text x="0" y="37.70000000000003" dx="0em" dy="0.3em" style="text-anchor: end; visibility: inherit; font-family: Roboto, sans-serif; font-size: 12px; font-weight: 200;" fill="rgb(33, 33, 33)" stroke="none" stroke-width="1px">0.018</text><text x="0" y="0" dx="0em" dy="0.3em" style="text-anchor: end; visibility: hidden; font-family: Roboto, sans-serif; font-size: 12px; font-weight: 200;" fill="rgb(33, 33, 33)" stroke="none" stroke-width="1px">0.02</text></g><line x1="61.953125" y1="0" x2="61.953125" y2="377" fill="rgb(0, 0, 0)" stroke="rgb(204, 204, 204)" stroke-width="1px"></line></g></g><g transform="translate(61, 0)" clip-path="url(#clip_0)"><clipPath id="clip_0"><rect width="706" height="376"></rect></clipPath><g><g><g><line x1="0" y1="0" x2="0" y2="377" fill="rgb(0, 0, 0)" stroke="rgb(66, 66, 66)" stroke-width="1px" opacity="0.25"></line><line x1="58.85715625" y1="0" x2="58.85715625" y2="377" fill="rgb(0, 0, 0)" stroke="rgb(66, 66, 66)" stroke-width="1px" opacity="0.25"></line><line x1="117.7143125" y1="0" x2="117.7143125" y2="377" fill="rgb(0, 0, 0)" stroke="rgb(66, 66, 66)" stroke-width="1px" opacity="0.25"></line><line x1="176.57146875" y1="0" x2="176.57146875" y2="377" fill="rgb(0, 0, 0)" stroke="rgb(66, 66, 66)" stroke-width="1px" opacity="0.25"></line><line x1="235.428625" y1="0" x2="235.428625" y2="377" fill="rgb(0, 0, 0)" stroke="rgb(66, 66, 66)" stroke-width="1px" opacity="0.25"></line><line x1="294.28578125" y1="0" x2="294.28578125" y2="377" fill="rgb(0, 0, 0)" stroke="rgb(66, 66, 66)" stroke-width="1px" opacity="0.25"></line><line x1="353.1429375" y1="0" x2="353.1429375" y2="377" fill="rgb(0, 0, 0)" stroke="rgb(66, 66, 66)" stroke-width="1px" opacity="0.25"></line><line x1="412.00009375" y1="0" x2="412.00009375" y2="377" fill="rgb(0, 0, 0)" stroke="rgb(66, 66, 66)" stroke-width="1px" opacity="0.25"></line><line x1="470.85725" y1="0" x2="470.85725" y2="377" fill="rgb(0, 0, 0)" stroke="rgb(66, 66, 66)" stroke-width="1px" opacity="0.25"></line><line x1="529.71440625" y1="0" x2="529.71440625" y2="377" fill="rgb(0, 0, 0)" stroke="rgb(66, 66, 66)" stroke-width="1px" opacity="0.25"></line><line x1="588.5715625" y1="0" x2="588.5715625" y2="377" fill="rgb(0, 0, 0)" stroke="rgb(66, 66, 66)" stroke-width="1px" opacity="0.25"></line><line x1="647.42871875" y1="0" x2="647.42871875" y2="377" fill="rgb(0, 0, 0)" stroke="rgb(66, 66, 66)" stroke-width="1px" opacity="0.25"></line><line x1="706.285875" y1="0" x2="706.285875" y2="377" fill="rgb(0, 0, 0)" stroke="rgb(66, 66, 66)" stroke-width="1px" opacity="0.25"></line></g><g><line x1="0" y1="377" x2="706.285875" y2="377" fill="rgb(0, 0, 0)" stroke="rgb(66, 66, 66)" stroke-width="1px" opacity="0.25"></line><line x1="0" y1="339.3" x2="706.285875" y2="339.3" fill="rgb(0, 0, 0)" stroke="rgb(66, 66, 66)" stroke-width="1px" opacity="0.25"></line><line x1="0" y1="301.6" x2="706.285875" y2="301.6" fill="rgb(0, 0, 0)" stroke="rgb(66, 66, 66)" stroke-width="1px" opacity="0.25"></line><line x1="0" y1="263.9" x2="706.285875" y2="263.9" fill="rgb(0, 0, 0)" stroke="rgb(66, 66, 66)" stroke-width="1px" opacity="0.25"></line><line x1="0" y1="226.2" x2="706.285875" y2="226.2" fill="rgb(0, 0, 0)" stroke="rgb(66, 66, 66)" stroke-width="1px" opacity="0.25"></line><line x1="0" y1="188.5" x2="706.285875" y2="188.5" fill="rgb(0, 0, 0)" stroke="rgb(66, 66, 66)" stroke-width="1px" opacity="0.25"></line><line x1="0" y1="150.8" x2="706.285875" y2="150.8" fill="rgb(0, 0, 0)" stroke="rgb(66, 66, 66)" stroke-width="1px" opacity="0.25"></line><line x1="0" y1="113.10000000000002" x2="706.285875" y2="113.10000000000002" fill="rgb(0, 0, 0)" stroke="rgb(66, 66, 66)" stroke-width="1px" opacity="0.25"></line><line x1="0" y1="75.39999999999998" x2="706.285875" y2="75.39999999999998" fill="rgb(0, 0, 0)" stroke="rgb(66, 66, 66)" stroke-width="1px" opacity="0.25"></line><line x1="0" y1="37.70000000000003" x2="706.285875" y2="37.70000000000003" fill="rgb(0, 0, 0)" stroke="rgb(66, 66, 66)" stroke-width="1px" opacity="0.25"></line><line x1="0" y1="0" x2="706.285875" y2="0" fill="rgb(0, 0, 0)" stroke="rgb(66, 66, 66)" stroke-width="1px" opacity="0.25"></line></g></g></g><g><g><line x1="0" y1="377" x2="706.285875" y2="377" fill="rgb(0, 0, 0)" stroke="rgb(153, 153, 153)" stroke-width="1.5px"></line></g></g><g><g><line x1="58.85715625" y1="0" x2="58.85715625" y2="377" fill="rgb(0, 0, 0)" stroke="rgb(153, 153, 153)" stroke-width="1.5px"></line></g></g><g><g><g><g><g><path stroke="rgb(238, 51, 119)" stroke-width="2px" d="M58.85715625,51.39237264916301L70.62858750000001,51.39237264916301L82.40001875,51.39237264916301L94.17145000000001,51.39237264916301L105.94288125,51.39237264916301L117.7143125,51.39237264916301L129.48574374999998,51.39237264916301L141.25717500000002,51.39237264916301L153.02860625000002,51.39237264916301L164.8000375,51.39237264916301L176.57146875,51.39237264916301L188.34290000000001,51.39237264916301L200.11433125,51.39237264916301L211.8857625,51.39237264916301L223.65719375,51.39237264916301L235.428625,51.39237264916301L247.20005625,51.39237264916301L258.97148749999997,51.39237264916301L270.74291875000006,51.39237264916301L282.51435000000004,51.39237264916301L294.28578125,51.39237264916301L306.05721250000005,51.39237264916301L317.82864375,51.39237264916301L329.600075,51.39237264916301L341.37150625000004,51.39237264916301L353.1429375,51.39237264916301L364.91436875000005,51.39237264916301L376.68580000000003,51.39237264916301L388.45723125000006,51.39237264916301L400.2286625,51.39237264916301L412.00009375,51.39237264916301L423.771525,51.39237264916301L435.54295625000003,51.39237264916301L447.3143875,51.39237264916301L459.08581875000004,51.39237264916301L470.85725,51.39237264916301L482.62868125000006,51.39237264916301L494.4001125,51.39237264916301L506.17154375,51.39237264916301L517.9429749999999,51.39237264916301L529.71440625,51.39237264916301L541.4858375000001,51.39237264916301L553.25726875,51.39237264916301L565.0287000000001,51.39237264916301L576.80013125,51.39237264916301L588.5715625,51.39237264916301L600.34299375,51.39237264916301L612.1144250000001,51.39237264916301L623.88585625,51.39237264916301L635.6572875,51.39237264916301" style="fill: none;" fill="none"></path></g><g><path stroke="rgb(51, 187, 238)" stroke-width="2px" d="M58.85715625,198.67032156139612L70.62858750000001,198.67032156139612L82.40001875,198.67032156139612L94.17145000000001,198.67032156139612L105.94288125,198.67032156139612L117.7143125,198.67032156139612L129.48574374999998,198.67032156139612L141.25717500000002,198.67032156139612L153.02860625000002,198.67032156139612L164.8000375,198.67032156139612L176.57146875,198.67032156139612L188.34290000000001,198.67032156139612L200.11433125,198.67032156139612L211.8857625,198.67032156139612L223.65719375,198.67032156139612L235.428625,198.67032156139612L247.20005625,198.67032156139612L258.97148749999997,198.67032156139612L270.74291875000006,198.67032156139612L282.51435000000004,198.67032156139612L294.28578125,198.67032156139612L306.05721250000005,198.67032156139612L317.82864375,198.67032156139612L329.600075,198.67032156139612L341.37150625000004,198.67032156139612L353.1429375,198.67032156139612L364.91436875000005,198.67032156139612L376.68580000000003,198.67032156139612L388.45723125000006,198.67032156139612L400.2286625,198.67032156139612L412.00009375,198.67032156139612L423.771525,198.67032156139612L435.54295625000003,198.67032156139612L447.3143875,198.67032156139612L459.08581875000004,198.67032156139612L470.85725,198.67032156139612L482.62868125000006,198.67032156139612L494.4001125,198.67032156139612L506.17154375,198.67032156139612L517.9429749999999,198.67032156139612L529.71440625,198.67032156139612L541.4858375000001,198.67032156139612L553.25726875,198.67032156139612L565.0287000000001,198.67032156139612L576.80013125,198.67032156139612L588.5715625,198.67032156139612L600.34299375,198.67032156139612L612.1144250000001,198.67032156139612L623.88585625,198.67032156139612L635.6572875,198.67032156139612" style="fill: none;" fill="none"></path></g><g><path stroke="rgb(204, 51, 17)" stroke-width="2px" d="M58.85715625,341.69043560209684L70.62858750000001,341.69043560209684L82.40001875,341.69043560209684L94.17145000000001,341.69043560209684L105.94288125,341.69043560209684L117.7143125,341.69043560209684L129.48574374999998,341.69043560209684L141.25717500000002,341.69043560209684L153.02860625000002,341.69043560209684L164.8000375,341.69043560209684L176.57146875,341.69043560209684L188.34290000000001,341.69043560209684L200.11433125,341.69043560209684L211.8857625,341.69043560209684L223.65719375,341.69043560209684L235.428625,341.69043560209684L247.20005625,341.69043560209684L258.97148749999997,341.69043560209684L270.74291875000006,341.69043560209684L282.51435000000004,341.69043560209684L294.28578125,341.69043560209684L306.05721250000005,341.69043560209684L317.82864375,341.69043560209684L329.600075,341.69043560209684L341.37150625000004,341.69043560209684L353.1429375,341.69043560209684L364.91436875000005,341.69043560209684L376.68580000000003,341.69043560209684L388.45723125000006,341.69043560209684L400.2286625,341.69043560209684L412.00009375,341.69043560209684L423.771525,341.69043560209684L435.54295625000003,341.69043560209684L447.3143875,341.69043560209684L459.08581875000004,341.69043560209684L470.85725,341.69043560209684L482.62868125000006,341.69043560209684L494.4001125,341.69043560209684L506.17154375,341.69043560209684L517.9429749999999,341.69043560209684L529.71440625,341.69043560209684L541.4858375000001,341.69043560209684L553.25726875,341.69043560209684L565.0287000000001,341.69043560209684L576.80013125,341.69043560209684L588.5715625,341.69043560209684L600.34299375,341.69043560209684L612.1144250000001,341.69043560209684L623.88585625,341.69043560209684L635.6572875,341.69043560209684" style="fill: none;" fill="none"></path></g><g><path stroke="rgb(0, 119, 187)" stroke-width="2px" d="M58.85715625,201.96544076129794L70.62858750000001,201.96544076129794L82.40001875,201.96544076129794L94.17145000000001,201.96544076129794L105.94288125,201.96544076129794L117.7143125,201.96544076129794L129.48574374999998,201.96544076129794L141.25717500000002,201.96544076129794L153.02860625000002,201.96544076129794L164.8000375,201.96544076129794L176.57146875,201.96544076129794L188.34290000000001,201.96544076129794L200.11433125,201.96544076129794L211.8857625,201.96544076129794L223.65719375,201.96544076129794L235.428625,201.96544076129794L247.20005625,201.96544076129794L258.97148749999997,201.96544076129794L270.74291875000006,201.96544076129794L282.51435000000004,201.96544076129794L294.28578125,201.96544076129794L306.05721250000005,201.96544076129794L317.82864375,201.96544076129794L329.600075,201.96544076129794L341.37150625000004,201.96544076129794L353.1429375,201.96544076129794L364.91436875000005,201.96544076129794L376.68580000000003,201.96544076129794L388.45723125000006,201.96544076129794L400.2286625,201.96544076129794L412.00009375,201.96544076129794L423.771525,201.96544076129794L435.54295625000003,201.96544076129794L447.3143875,201.96544076129794L459.08581875000004,201.96544076129794L470.85725,201.96544076129794L482.62868125000006,201.96544076129794L494.4001125,201.96544076129794L506.17154375,201.96544076129794L517.9429749999999,201.96544076129794L529.71440625,201.96544076129794L541.4858375000001,201.96544076129794L553.25726875,201.96544076129794L565.0287000000001,201.96544076129794L576.80013125,201.96544076129794L588.5715625,201.96544076129794L600.34299375,201.96544076129794L612.1144250000001,201.96544076129794L623.88585625,201.96544076129794L635.6572875,201.96544076129794" style="fill: none;" fill="none"></path></g></g></g></g><g opacity="0.2"><g><g><g><path stroke="rgb(238, 51, 119)" stroke-width="2px" d="M58.85715625,51.39237264916301L70.62858750000001,51.39237264916301L82.40001875,51.39237264916301L94.17145000000001,51.39237264916301L105.94288125,51.39237264916301L117.7143125,51.39237264916301L129.48574374999998,51.39237264916301L141.25717500000002,51.39237264916301L153.02860625000002,51.39237264916301L164.8000375,51.39237264916301L176.57146875,51.39237264916301L188.34290000000001,51.39237264916301L200.11433125,51.39237264916301L211.8857625,51.39237264916301L223.65719375,51.39237264916301L235.428625,51.39237264916301L247.20005625,51.39237264916301L258.97148749999997,51.39237264916301L270.74291875000006,51.39237264916301L282.51435000000004,51.39237264916301L294.28578125,51.39237264916301L306.05721250000005,51.39237264916301L317.82864375,51.39237264916301L329.600075,51.39237264916301L341.37150625000004,51.39237264916301L353.1429375,51.39237264916301L364.91436875000005,51.39237264916301L376.68580000000003,51.39237264916301L388.45723125000006,51.39237264916301L400.2286625,51.39237264916301L412.00009375,51.39237264916301L423.771525,51.39237264916301L435.54295625000003,51.39237264916301L447.3143875,51.39237264916301L459.08581875000004,51.39237264916301L470.85725,51.39237264916301L482.62868125000006,51.39237264916301L494.4001125,51.39237264916301L506.17154375,51.39237264916301L517.9429749999999,51.39237264916301L529.71440625,51.39237264916301L541.4858375000001,51.39237264916301L553.25726875,51.39237264916301L565.0287000000001,51.39237264916301L576.80013125,51.39237264916301L588.5715625,51.39237264916301L600.34299375,51.39237264916301L612.1144250000001,51.39237264916301L623.88585625,51.39237264916301L635.6572875,51.39237264916301" style="fill: none;" fill="none"></path></g><g><path stroke="rgb(51, 187, 238)" stroke-width="2px" d="M58.85715625,198.67032156139612L70.62858750000001,198.67032156139612L82.40001875,198.67032156139612L94.17145000000001,198.67032156139612L105.94288125,198.67032156139612L117.7143125,198.67032156139612L129.48574374999998,198.67032156139612L141.25717500000002,198.67032156139612L153.02860625000002,198.67032156139612L164.8000375,198.67032156139612L176.57146875,198.67032156139612L188.34290000000001,198.67032156139612L200.11433125,198.67032156139612L211.8857625,198.67032156139612L223.65719375,198.67032156139612L235.428625,198.67032156139612L247.20005625,198.67032156139612L258.97148749999997,198.67032156139612L270.74291875000006,198.67032156139612L282.51435000000004,198.67032156139612L294.28578125,198.67032156139612L306.05721250000005,198.67032156139612L317.82864375,198.67032156139612L329.600075,198.67032156139612L341.37150625000004,198.67032156139612L353.1429375,198.67032156139612L364.91436875000005,198.67032156139612L376.68580000000003,198.67032156139612L388.45723125000006,198.67032156139612L400.2286625,198.67032156139612L412.00009375,198.67032156139612L423.771525,198.67032156139612L435.54295625000003,198.67032156139612L447.3143875,198.67032156139612L459.08581875000004,198.67032156139612L470.85725,198.67032156139612L482.62868125000006,198.67032156139612L494.4001125,198.67032156139612L506.17154375,198.67032156139612L517.9429749999999,198.67032156139612L529.71440625,198.67032156139612L541.4858375000001,198.67032156139612L553.25726875,198.67032156139612L565.0287000000001,198.67032156139612L576.80013125,198.67032156139612L588.5715625,198.67032156139612L600.34299375,198.67032156139612L612.1144250000001,198.67032156139612L623.88585625,198.67032156139612L635.6572875,198.67032156139612" style="fill: none;" fill="none"></path></g><g><path stroke="rgb(204, 51, 17)" stroke-width="2px" d="M58.85715625,341.69043560209684L70.62858750000001,341.69043560209684L82.40001875,341.69043560209684L94.17145000000001,341.69043560209684L105.94288125,341.69043560209684L117.7143125,341.69043560209684L129.48574374999998,341.69043560209684L141.25717500000002,341.69043560209684L153.02860625000002,341.69043560209684L164.8000375,341.69043560209684L176.57146875,341.69043560209684L188.34290000000001,341.69043560209684L200.11433125,341.69043560209684L211.8857625,341.69043560209684L223.65719375,341.69043560209684L235.428625,341.69043560209684L247.20005625,341.69043560209684L258.97148749999997,341.69043560209684L270.74291875000006,341.69043560209684L282.51435000000004,341.69043560209684L294.28578125,341.69043560209684L306.05721250000005,341.69043560209684L317.82864375,341.69043560209684L329.600075,341.69043560209684L341.37150625000004,341.69043560209684L353.1429375,341.69043560209684L364.91436875000005,341.69043560209684L376.68580000000003,341.69043560209684L388.45723125000006,341.69043560209684L400.2286625,341.69043560209684L412.00009375,341.69043560209684L423.771525,341.69043560209684L435.54295625000003,341.69043560209684L447.3143875,341.69043560209684L459.08581875000004,341.69043560209684L470.85725,341.69043560209684L482.62868125000006,341.69043560209684L494.4001125,341.69043560209684L506.17154375,341.69043560209684L517.9429749999999,341.69043560209684L529.71440625,341.69043560209684L541.4858375000001,341.69043560209684L553.25726875,341.69043560209684L565.0287000000001,341.69043560209684L576.80013125,341.69043560209684L588.5715625,341.69043560209684L600.34299375,341.69043560209684L612.1144250000001,341.69043560209684L623.88585625,341.69043560209684L635.6572875,341.69043560209684" style="fill: none;" fill="none"></path></g><g><path stroke="rgb(0, 119, 187)" stroke-width="2px" d="M58.85715625,201.96544076129794L70.62858750000001,201.96544076129794L82.40001875,201.96544076129794L94.17145000000001,201.96544076129794L105.94288125,201.96544076129794L117.7143125,201.96544076129794L129.48574374999998,201.96544076129794L141.25717500000002,201.96544076129794L153.02860625000002,201.96544076129794L164.8000375,201.96544076129794L176.57146875,201.96544076129794L188.34290000000001,201.96544076129794L200.11433125,201.96544076129794L211.8857625,201.96544076129794L223.65719375,201.96544076129794L235.428625,201.96544076129794L247.20005625,201.96544076129794L258.97148749999997,201.96544076129794L270.74291875000006,201.96544076129794L282.51435000000004,201.96544076129794L294.28578125,201.96544076129794L306.05721250000005,201.96544076129794L317.82864375,201.96544076129794L329.600075,201.96544076129794L341.37150625000004,201.96544076129794L353.1429375,201.96544076129794L364.91436875000005,201.96544076129794L376.68580000000003,201.96544076129794L388.45723125000006,201.96544076129794L400.2286625,201.96544076129794L412.00009375,201.96544076129794L423.771525,201.96544076129794L435.54295625000003,201.96544076129794L447.3143875,201.96544076129794L459.08581875000004,201.96544076129794L470.85725,201.96544076129794L482.62868125000006,201.96544076129794L494.4001125,201.96544076129794L506.17154375,201.96544076129794L517.9429749999999,201.96544076129794L529.71440625,201.96544076129794L541.4858375000001,201.96544076129794L553.25726875,201.96544076129794L565.0287000000001,201.96544076129794L576.80013125,201.96544076129794L588.5715625,201.96544076129794L600.34299375,201.96544076129794L612.1144250000001,201.96544076129794L623.88585625,201.96544076129794L635.6572875,201.96544076129794" style="fill: none;" fill="none"></path></g></g></g></g></g></g><g transform="translate(61, 377)" clip-path="url(#clip_1)"><clipPath id="clip_1"><rect width="706" height="22"></rect></clipPath><g><g><line x1="0" y1="0" x2="0" y2="5" style="visibility: inherit;" fill="rgb(0, 0, 0)" stroke="rgb(204, 204, 204)" stroke-width="1px"></line><line x1="58.85715625" y1="0" x2="58.85715625" y2="5" style="visibility: inherit;" fill="rgb(0, 0, 0)" stroke="rgb(204, 204, 204)" stroke-width="1px"></line><line x1="117.7143125" y1="0" x2="117.7143125" y2="5" style="visibility: inherit;" fill="rgb(0, 0, 0)" stroke="rgb(204, 204, 204)" stroke-width="1px"></line><line x1="176.57146875" y1="0" x2="176.57146875" y2="5" style="visibility: inherit;" fill="rgb(0, 0, 0)" stroke="rgb(204, 204, 204)" stroke-width="1px"></line><line x1="235.428625" y1="0" x2="235.428625" y2="5" style="visibility: inherit;" fill="rgb(0, 0, 0)" stroke="rgb(204, 204, 204)" stroke-width="1px"></line><line x1="294.28578125" y1="0" x2="294.28578125" y2="5" style="visibility: inherit;" fill="rgb(0, 0, 0)" stroke="rgb(204, 204, 204)" stroke-width="1px"></line><line x1="353.1429375" y1="0" x2="353.1429375" y2="5" style="visibility: inherit;" fill="rgb(0, 0, 0)" stroke="rgb(204, 204, 204)" stroke-width="1px"></line><line x1="412.00009375" y1="0" x2="412.00009375" y2="5" style="visibility: inherit;" fill="rgb(0, 0, 0)" stroke="rgb(204, 204, 204)" stroke-width="1px"></line><line x1="470.85725" y1="0" x2="470.85725" y2="5" style="visibility: inherit;" fill="rgb(0, 0, 0)" stroke="rgb(204, 204, 204)" stroke-width="1px"></line><line x1="529.71440625" y1="0" x2="529.71440625" y2="5" style="visibility: inherit;" fill="rgb(0, 0, 0)" stroke="rgb(204, 204, 204)" stroke-width="1px"></line><line x1="588.5715625" y1="0" x2="588.5715625" y2="5" style="visibility: inherit;" fill="rgb(0, 0, 0)" stroke="rgb(204, 204, 204)" stroke-width="1px"></line><line x1="647.42871875" y1="0" x2="647.42871875" y2="5" style="visibility: inherit;" fill="rgb(0, 0, 0)" stroke="rgb(204, 204, 204)" stroke-width="1px"></line><line x1="706.285875" y1="0" x2="706.285875" y2="5" style="visibility: inherit;" fill="rgb(0, 0, 0)" stroke="rgb(204, 204, 204)" stroke-width="1px"></line></g><g transform="translate(0, 8)"><text x="0" y="0" dx="0em" dy="0.95em" style="text-anchor: middle; visibility: hidden; font-family: Roboto, sans-serif; font-size: 12px; font-weight: 200;" fill="rgb(33, 33, 33)" stroke="none" stroke-width="1px">-500</text><text x="58.85715625" y="0" dx="0em" dy="0.95em" style="text-anchor: middle; visibility: inherit; font-family: Roboto, sans-serif; font-size: 12px; font-weight: 200;" fill="rgb(33, 33, 33)" stroke="none" stroke-width="1px">0</text><text x="117.7143125" y="0" dx="0em" dy="0.95em" style="text-anchor: middle; visibility: inherit; font-family: Roboto, sans-serif; font-size: 12px; font-weight: 200;" fill="rgb(33, 33, 33)" stroke="none" stroke-width="1px">500</text><text x="176.57146875" y="0" dx="0em" dy="0.95em" style="text-anchor: middle; visibility: inherit; font-family: Roboto, sans-serif; font-size: 12px; font-weight: 200;" fill="rgb(33, 33, 33)" stroke="none" stroke-width="1px">1k</text><text x="235.428625" y="0" dx="0em" dy="0.95em" style="text-anchor: middle; visibility: inherit; font-family: Roboto, sans-serif; font-size: 12px; font-weight: 200;" fill="rgb(33, 33, 33)" stroke="none" stroke-width="1px">1.5k</text><text x="294.28578125" y="0" dx="0em" dy="0.95em" style="text-anchor: middle; visibility: inherit; font-family: Roboto, sans-serif; font-size: 12px; font-weight: 200;" fill="rgb(33, 33, 33)" stroke="none" stroke-width="1px">2k</text><text x="353.1429375" y="0" dx="0em" dy="0.95em" style="text-anchor: middle; visibility: inherit; font-family: Roboto, sans-serif; font-size: 12px; font-weight: 200;" fill="rgb(33, 33, 33)" stroke="none" stroke-width="1px">2.5k</text><text x="412.00009375" y="0" dx="0em" dy="0.95em" style="text-anchor: middle; visibility: inherit; font-family: Roboto, sans-serif; font-size: 12px; font-weight: 200;" fill="rgb(33, 33, 33)" stroke="none" stroke-width="1px">3k</text><text x="470.85725" y="0" dx="0em" dy="0.95em" style="text-anchor: middle; visibility: inherit; font-family: Roboto, sans-serif; font-size: 12px; font-weight: 200;" fill="rgb(33, 33, 33)" stroke="none" stroke-width="1px">3.5k</text><text x="529.71440625" y="0" dx="0em" dy="0.95em" style="text-anchor: middle; visibility: inherit; font-family: Roboto, sans-serif; font-size: 12px; font-weight: 200;" fill="rgb(33, 33, 33)" stroke="none" stroke-width="1px">4k</text><text x="588.5715625" y="0" dx="0em" dy="0.95em" style="text-anchor: middle; visibility: inherit; font-family: Roboto, sans-serif; font-size: 12px; font-weight: 200;" fill="rgb(33, 33, 33)" stroke="none" stroke-width="1px">4.5k</text><text x="647.42871875" y="0" dx="0em" dy="0.95em" style="text-anchor: middle; visibility: inherit; font-family: Roboto, sans-serif; font-size: 12px; font-weight: 200;" fill="rgb(33, 33, 33)" stroke="none" stroke-width="1px">5k</text><text x="706.285875" y="0" dx="0em" dy="0.95em" style="text-anchor: middle; visibility: hidden; font-family: Roboto, sans-serif; font-size: 12px; font-weight: 200;" fill="rgb(33, 33, 33)" stroke="none" stroke-width="1px">5.5k</text></g><line x1="0" y1="0" x2="706.285875" y2="0" fill="rgb(0, 0, 0)" stroke="rgb(204, 204, 204)" stroke-width="1px"></line></g></g></g></g></svg>