<svg viewBox="0 0 768.2385864257812 400" xmlns="http://www.w3.org/2000/svg"><g><g><g><g><g><line x1="61.953125" y1="377" x2="56.953125" y2="377" style="visibility: inherit;" fill="rgb(0, 0, 0)" stroke="rgb(204, 204, 204)" stroke-width="1px"></line><line x1="61.953125" y1="350.07142857142856" x2="56.953125" y2="350.07142857142856" style="visibility: inherit;" fill="rgb(0, 0, 0)" stroke="rgb(204, 204, 204)" stroke-width="1px"></line><line x1="61.953125" y1="323.14285714285717" x2="56.953125" y2="323.14285714285717" style="visibility: inherit;" fill="rgb(0, 0, 0)" stroke="rgb(204, 204, 204)" stroke-width="1px"></line><line x1="61.953125" y1="296.2142857142857" x2="56.953125" y2="296.2142857142857" style="visibility: inherit;" fill="rgb(0, 0, 0)" stroke="rgb(204, 204, 204)" stroke-width="1px"></line><line x1="61.953125" y1="269.28571428571433" x2="56.953125" y2="269.28571428571433" style="visibility: inherit;" fill="rgb(0, 0, 0)" stroke="rgb(204, 204, 204)" stroke-width="1px"></line><line x1="61.953125" y1="242.35714285714283" x2="56.953125" y2="242.35714285714283" style="visibility: inherit;" fill="rgb(0, 0, 0)" stroke="rgb(204, 204, 204)" stroke-width="1px"></line><line x1="61.953125" y1="215.42857142857144" x2="56.953125" y2="215.42857142857144" style="visibility: inherit;" fill="rgb(0, 0, 0)" stroke="rgb(204, 204, 204)" stroke-width="1px"></line><line x1="61.953125" y1="188.50000000000003" x2="56.953125" y2="188.50000000000003" style="visibility: inherit;" fill="rgb(0, 0, 0)" stroke="rgb(204, 204, 204)" stroke-width="1px"></line><line x1="61.953125" y1="161.57142857142858" x2="56.953125" y2="161.57142857142858" style="visibility: inherit;" fill="rgb(0, 0, 0)" stroke="rgb(204, 204, 204)" stroke-width="1px"></line><line x1="61.953125" y1="134.64285714285717" x2="56.953125" y2="134.64285714285717" style="visibility: inherit;" fill="rgb(0, 0, 0)" stroke="rgb(204, 204, 204)" stroke-width="1px"></line><line x1="61.953125" y1="107.71428571428575" x2="56.953125" y2="107.71428571428575" style="visibility: inherit;" fill="rgb(0, 0, 0)" stroke="rgb(204, 204, 204)" stroke-width="1px"></line><line x1="61.953125" y1="80.78571428571429" x2="56.953125" y2="80.78571428571429" style="visibility: inherit;" fill="rgb(0, 0, 0)" stroke="rgb(204, 204, 204)" stroke-width="1px"></line><line x1="61.953125" y1="53.857142857142875" x2="56.953125" y2="53.857142857142875" style="visibility: inherit;" fill="rgb(0, 0, 0)" stroke="rgb(204, 204, 204)" stroke-width="1px"></line><line x1="61.953125" y1="26.92857142857146" x2="56.953125" y2="26.92857142857146" style="visibility: inherit;" fill="rgb(0, 0, 0)" stroke="rgb(204, 204, 204)" stroke-width="1px"></line><line x1="61.953125" y1="0" x2="56.953125" y2="0" style="visibility: inherit;" fill="rgb(0, 0, 0)" stroke="rgb(204, 204, 204)" stroke-width="1px"></line></g><g transform="translate(51.953125, 0)"><text x="0" y="377" dx="0em" dy="0.3em" style="text-anchor: end; visibility: hidden; font-family: Roboto, sans-serif; font-size: 12px; font-weight: 200;" fill="rgb(33, 33, 33)" stroke="none" stroke-width="1px">0.01</text><text x="0" y="350.07142857142856" dx="0em" dy="0.3em" style="text-anchor: end; visibility: inherit; font-family: Roboto, sans-serif; font-size: 12px; font-weight: 200;" fill="rgb(33, 33, 33)" stroke="none" stroke-width="1px">0.015</text><text x="0" y="323.14285714285717" dx="0em" dy="0.3em" style="text-anchor: end; visibility: inherit; font-family: Roboto, sans-serif; font-size: 12px; font-weight: 200;" fill="rgb(33, 33, 33)" stroke="none" stroke-width="1px">0.02</text><text x="0" y="296.2142857142857" dx="0em" dy="0.3em" style="text-anchor: end; visibility: inherit; font-family: Roboto, sans-serif; font-size: 12px; font-weight: 200;" fill="rgb(33, 33, 33)" stroke="none" stroke-width="1px">0.025</text><text x="0" y="269.28571428571433" dx="0em" dy="0.3em" style="text-anchor: end; visibility: inherit; font-family: Roboto, sans-serif; font-size: 12px; font-weight: 200;" fill="rgb(33, 33, 33)" stroke="none" stroke-width="1px">0.03</text><text x="0" y="242.35714285714283" dx="0em" dy="0.3em" style="text-anchor: end; visibility: inherit; font-family: Roboto, sans-serif; font-size: 12px; font-weight: 200;" fill="rgb(33, 33, 33)" stroke="none" stroke-width="1px">0.035</text><text x="0" y="215.42857142857144" dx="0em" dy="0.3em" style="text-anchor: end; visibility: inherit; font-family: Roboto, sans-serif; font-size: 12px; font-weight: 200;" fill="rgb(33, 33, 33)" stroke="none" stroke-width="1px">0.04</text><text x="0" y="188.50000000000003" dx="0em" dy="0.3em" style="text-anchor: end; visibility: inherit; font-family: Roboto, sans-serif; font-size: 12px; font-weight: 200;" fill="rgb(33, 33, 33)" stroke="none" stroke-width="1px">0.045</text><text x="0" y="161.57142857142858" dx="0em" dy="0.3em" style="text-anchor: end; visibility: inherit; font-family: Roboto, sans-serif; font-size: 12px; font-weight: 200;" fill="rgb(33, 33, 33)" stroke="none" stroke-width="1px">0.05</text><text x="0" y="134.64285714285717" dx="0em" dy="0.3em" style="text-anchor: end; visibility: inherit; font-family: Roboto, sans-serif; font-size: 12px; font-weight: 200;" fill="rgb(33, 33, 33)" stroke="none" stroke-width="1px">0.055</text><text x="0" y="107.71428571428575" dx="0em" dy="0.3em" style="text-anchor: end; visibility: inherit; font-family: Roboto, sans-serif; font-size: 12px; font-weight: 200;" fill="rgb(33, 33, 33)" stroke="none" stroke-width="1px">0.06</text><text x="0" y="80.78571428571429" dx="0em" dy="0.3em" style="text-anchor: end; visibility: inherit; font-family: Roboto, sans-serif; font-size: 12px; font-weight: 200;" fill="rgb(33, 33, 33)" stroke="none" stroke-width="1px">0.065</text><text x="0" y="53.857142857142875" dx="0em" dy="0.3em" style="text-anchor: end; visibility: inherit; font-family: Roboto, sans-serif; font-size: 12px; font-weight: 200;" fill="rgb(33, 33, 33)" stroke="none" stroke-width="1px">0.07</text><text x="0" y="26.92857142857146" dx="0em" dy="0.3em" style="text-anchor: end; visibility: inherit; font-family: Roboto, sans-serif; font-size: 12px; font-weight: 200;" fill="rgb(33, 33, 33)" stroke="none" stroke-width="1px">0.075</text><text x="0" y="0" dx="0em" dy="0.3em" style="text-anchor: end; visibility: hidden; font-family: Roboto, sans-serif; font-size: 12px; font-weight: 200;" fill="rgb(33, 33, 33)" stroke="none" stroke-width="1px">0.08</text></g><line x1="61.953125" y1="0" x2="61.953125" y2="377" fill="rgb(0, 0, 0)" stroke="rgb(204, 204, 204)" stroke-width="1px"></line></g></g><g transform="translate(61, 0)" clip-path="url(#clip_0)"><clipPath id="clip_0"><rect width="706" height="376"></rect></clipPath><g><g><g><line x1="0" y1="0" x2="0" y2="377" fill="rgb(0, 0, 0)" stroke="rgb(66, 66, 66)" stroke-width="1px" opacity="0.25"></line><line x1="58.85715625" y1="0" x2="58.85715625" y2="377" fill="rgb(0, 0, 0)" stroke="rgb(66, 66, 66)" stroke-width="1px" opacity="0.25"></line><line x1="117.7143125" y1="0" x2="117.7143125" y2="377" fill="rgb(0, 0, 0)" stroke="rgb(66, 66, 66)" stroke-width="1px" opacity="0.25"></line><line x1="176.57146875" y1="0" x2="176.57146875" y2="377" fill="rgb(0, 0, 0)" stroke="rgb(66, 66, 66)" stroke-width="1px" opacity="0.25"></line><line x1="235.428625" y1="0" x2="235.428625" y2="377" fill="rgb(0, 0, 0)" stroke="rgb(66, 66, 66)" stroke-width="1px" opacity="0.25"></line><line x1="294.28578125" y1="0" x2="294.28578125" y2="377" fill="rgb(0, 0, 0)" stroke="rgb(66, 66, 66)" stroke-width="1px" opacity="0.25"></line><line x1="353.1429375" y1="0" x2="353.1429375" y2="377" fill="rgb(0, 0, 0)" stroke="rgb(66, 66, 66)" stroke-width="1px" opacity="0.25"></line><line x1="412.00009375" y1="0" x2="412.00009375" y2="377" fill="rgb(0, 0, 0)" stroke="rgb(66, 66, 66)" stroke-width="1px" opacity="0.25"></line><line x1="470.85725" y1="0" x2="470.85725" y2="377" fill="rgb(0, 0, 0)" stroke="rgb(66, 66, 66)" stroke-width="1px" opacity="0.25"></line><line x1="529.71440625" y1="0" x2="529.71440625" y2="377" fill="rgb(0, 0, 0)" stroke="rgb(66, 66, 66)" stroke-width="1px" opacity="0.25"></line><line x1="588.5715625" y1="0" x2="588.5715625" y2="377" fill="rgb(0, 0, 0)" stroke="rgb(66, 66, 66)" stroke-width="1px" opacity="0.25"></line><line x1="647.42871875" y1="0" x2="647.42871875" y2="377" fill="rgb(0, 0, 0)" stroke="rgb(66, 66, 66)" stroke-width="1px" opacity="0.25"></line><line x1="706.285875" y1="0" x2="706.285875" y2="377" fill="rgb(0, 0, 0)" stroke="rgb(66, 66, 66)" stroke-width="1px" opacity="0.25"></line></g><g><line x1="0" y1="377" x2="706.285875" y2="377" fill="rgb(0, 0, 0)" stroke="rgb(66, 66, 66)" stroke-width="1px" opacity="0.25"></line><line x1="0" y1="350.07142857142856" x2="706.285875" y2="350.07142857142856" fill="rgb(0, 0, 0)" stroke="rgb(66, 66, 66)" stroke-width="1px" opacity="0.25"></line><line x1="0" y1="323.14285714285717" x2="706.285875" y2="323.14285714285717" fill="rgb(0, 0, 0)" stroke="rgb(66, 66, 66)" stroke-width="1px" opacity="0.25"></line><line x1="0" y1="296.2142857142857" x2="706.285875" y2="296.2142857142857" fill="rgb(0, 0, 0)" stroke="rgb(66, 66, 66)" stroke-width="1px" opacity="0.25"></line><line x1="0" y1="269.28571428571433" x2="706.285875" y2="269.28571428571433" fill="rgb(0, 0, 0)" stroke="rgb(66, 66, 66)" stroke-width="1px" opacity="0.25"></line><line x1="0" y1="242.35714285714283" x2="706.285875" y2="242.35714285714283" fill="rgb(0, 0, 0)" stroke="rgb(66, 66, 66)" stroke-width="1px" opacity="0.25"></line><line x1="0" y1="215.42857142857144" x2="706.285875" y2="215.42857142857144" fill="rgb(0, 0, 0)" stroke="rgb(66, 66, 66)" stroke-width="1px" opacity="0.25"></line><line x1="0" y1="188.50000000000003" x2="706.285875" y2="188.50000000000003" fill="rgb(0, 0, 0)" stroke="rgb(66, 66, 66)" stroke-width="1px" opacity="0.25"></line><line x1="0" y1="161.57142857142858" x2="706.285875" y2="161.57142857142858" fill="rgb(0, 0, 0)" stroke="rgb(66, 66, 66)" stroke-width="1px" opacity="0.25"></line><line x1="0" y1="134.64285714285717" x2="706.285875" y2="134.64285714285717" fill="rgb(0, 0, 0)" stroke="rgb(66, 66, 66)" stroke-width="1px" opacity="0.25"></line><line x1="0" y1="107.71428571428575" x2="706.285875" y2="107.71428571428575" fill="rgb(0, 0, 0)" stroke="rgb(66, 66, 66)" stroke-width="1px" opacity="0.25"></line><line x1="0" y1="80.78571428571429" x2="706.285875" y2="80.78571428571429" fill="rgb(0, 0, 0)" stroke="rgb(66, 66, 66)" stroke-width="1px" opacity="0.25"></line><line x1="0" y1="53.857142857142875" x2="706.285875" y2="53.857142857142875" fill="rgb(0, 0, 0)" stroke="rgb(66, 66, 66)" stroke-width="1px" opacity="0.25"></line><line x1="0" y1="26.92857142857146" x2="706.285875" y2="26.92857142857146" fill="rgb(0, 0, 0)" stroke="rgb(66, 66, 66)" stroke-width="1px" opacity="0.25"></line><line x1="0" y1="0" x2="706.285875" y2="0" fill="rgb(0, 0, 0)" stroke="rgb(66, 66, 66)" stroke-width="1px" opacity="0.25"></line></g></g></g><g><g><line x1="0" y1="430.85714285714283" x2="706.285875" y2="430.85714285714283" fill="rgb(0, 0, 0)" stroke="rgb(153, 153, 153)" stroke-width="1.5px"></line></g></g><g><g><line x1="58.85715625" y1="0" x2="58.85715625" y2="377" fill="rgb(0, 0, 0)" stroke="rgb(153, 153, 153)" stroke-width="1.5px"></line></g></g><g><g><g><g><g><path stroke="rgb(238, 51, 119)" stroke-width="2px" d="M70.5108731875,74.26513864312858L82.2823044375,182.2181707892035L94.0537356875,225.28961348153504L105.82516693750001,248.82414269668425L117.5965981875,263.56379435708965L129.3680294375,275.3605904473343L141.13946068750002,283.442800919197L152.9108919375,289.49962215107564L164.6823231875,293.26666377806583L176.4537544375,296.9149625194624L188.22518568750002,300.15543884019587L199.99661693750002,302.5471800832628L211.76804818750003,304.939817610269L223.5394794375,309.25926091951413L235.3109106875,312.10237921782647L247.08234193750002,316.2924677760762L258.8537731875,319.1177379418648L270.62520443750003,321.5695325807195L282.3966356875,323.3230394213573L294.1680669375,324.583071458458L305.9394981875,325.3169549129906L317.7109294375,326.96678151840257L329.48236068750003,329.4658526655143L341.2537919375,330.211920454698L353.02522318750005,331.11996588627056L364.79665443749997,332.2866199474837L376.5680856875,333.12301393588143L388.3395169375,334.15998778431674L400.1109481875,334.1522545175698L411.88237943750005,334.65704317096703L423.6538106875,333.4122774826795L435.42524193750006,334.2843941521864L447.19667318750004,335.3094886230936L458.9681044375001,335.61182987970875L470.7395356875,335.62406849028935L482.51096693750003,336.00436925823567L494.2823981875,336.69151488247917L506.05382943750004,336.5269528745806L517.8252606875,336.17442634056414L529.5966919375,336.01261134930917L541.3681231875,336.53085323649424L553.1395544375,337.50479575514356L564.9109856875,338.6441857325377L576.6824169375001,338.9882555591924L588.4538481875001,337.8777111262209L600.2252794375,338.6666875246309L611.9967106875,338.573881637127L623.7681419375,339.8575992071487L635.5395731875001,339.5561258893909L647.3110044375001,339.5833871084617" style="fill: none;" fill="none"></path></g><g><path stroke="rgb(51, 187, 238)" stroke-width="2px" d="M70.5108731875,-2.312532122646047L82.2823044375,133.86913073435426L94.0537356875,189.30673641170603L105.82516693750001,220.99995034310908L117.5965981875,239.6197048606285L129.3680294375,253.23384419885434L141.13946068750002,260.527719673632L152.9108919375,269.0501919398477L164.6823231875,276.55667141252246L176.4537544375,284.2528221150893L188.22518568750002,293.46322263450463L199.99661693750002,298.11961080914966L211.76804818750003,303.12047925424037L223.5394794375,308.15751845346574L235.3109106875,310.482354883994L247.08234193750002,313.1896763537144L258.8537731875,313.9955153033748L270.62520443750003,315.0415527800429L282.3966356875,317.3975858633858L294.1680669375,320.0023745995506L305.9394981875,321.778769939422L317.7109294375,324.05971487650226L329.48236068750003,325.93966939569316L341.2537919375,326.7173409195593L353.02522318750005,326.80742758173346L364.79665443749997,328.5120859423598L376.5680856875,329.2021080476503L388.3395169375,330.4480601814365L400.1109481875,332.0775278481305L411.88237943750005,332.4552897148053L423.6538106875,332.24135958762236L435.42524193750006,332.5739489882035L447.19667318750004,333.5708642854232L458.9681044375001,334.2023667459186L470.7395356875,334.78190973121355L482.51096693750003,335.8167249790805L494.2823981875,336.406198928631L506.05382943750004,335.8837328848117L517.8252606875,336.5549945410128L529.5966919375,336.41042336744545L541.3681231875,337.03280369004483L553.1395544375,337.83653454600096L564.9109856875,338.4125852674446L576.6824169375001,338.6133543064381L588.4538481875001,337.97495566107125L600.2252794375,337.94687724758813L611.9967106875,338.6936332439356L623.7681419375,338.4812375007719L635.5395731875001,338.88636159548753L647.3110044375001,339.1919815370441" style="fill: none;" fill="none"></path></g><g><path stroke="rgb(204, 51, 17)" stroke-width="2px" d="M94.0537356875,-48.855971887056036L105.82516693750001,42.574923566738235L117.5965981875,119.74118492632293L129.3680294375,168.09670614695773L141.13946068750002,198.13483530197917L152.9108919375,218.46461650759733L164.6823231875,232.14815114681736L176.4537544375,242.58393018475869L188.22518568750002,250.48592526534884L199.99661693750002,256.40283605275596L211.76804818750003,260.6668850424895L223.5394794375,262.93617462486793L235.3109106875,267.2820152735238L247.08234193750002,269.258755052061L258.8537731875,271.99520007243774L270.62520443750003,276.2114246313746L282.3966356875,280.8964383059888L294.1680669375,284.51671309646076L305.9394981875,286.9265692237752L317.7109294375,289.6981603377562L329.48236068750003,291.90703173928165L341.2537919375,295.26568922388265L353.02522318750005,296.47189291440446L364.79665443749997,299.07389873607906L376.5680856875,300.39668235343134L388.3395169375,302.1624536234107L400.1109481875,303.4699108166499L411.88237943750005,303.20272000520515L423.6538106875,303.72681062678396L435.42524193750006,306.78612394951404L447.19667318750004,308.1201480972517L458.9681044375001,308.99050739503616L470.7395356875,309.21444114037746L482.51096693750003,309.45234030595896L494.2823981875,309.74631331811366L506.05382943750004,311.56279968497705L517.8252606875,311.16901485103585L529.5966919375,311.2166844818612L541.3681231875,313.21470461729206L553.1395544375,314.5020241561352L564.9109856875,315.13635596063506L576.6824169375001,315.6164291284639L588.4538481875001,317.5496154972375L600.2252794375,317.3376797675037L611.9967106875,318.63754410342074L623.7681419375,318.3560352926275L635.5395731875001,318.4912743290319L647.3110044375001,320.1824333071026" style="fill: none;" fill="none"></path></g><g><path stroke="rgb(0, 119, 187)" stroke-width="2px" d="M70.5108731875,-49.18063618455602L82.2823044375,92.61509034170639L94.0537356875,161.90643990661073L105.82516693750001,211.15534771226365L117.5965981875,242.031327075771L129.3680294375,261.82355310615253L141.13946068750002,273.6519273095074L152.9108919375,281.9191077169635L164.6823231875,288.6904437581104L176.4537544375,294.3692853210864L188.22518568750002,298.2515810412387L199.99661693750002,299.91253167377846L211.76804818750003,302.2283986974426L223.5394794375,304.0230649450388L235.3109106875,305.6796016734466L247.08234193750002,307.6896248467489L258.8537731875,310.4842650577305L270.62520443750003,310.05799818891484L282.3966356875,311.06185940193217L294.1680669375,313.5178776483841L305.9394981875,315.993404725835L317.7109294375,319.3281139720801L329.48236068750003,321.8930250345463L341.2537919375,322.92265218867874L353.02522318750005,323.9491811463342L364.79665443749997,325.05659738170004L376.5680856875,326.6931482779383L388.3395169375,327.43117949595L400.1109481875,328.4181883949939L411.88237943750005,329.8308040943155L423.6538106875,330.59891040274323L435.42524193750006,331.4511900328753L447.19667318750004,333.13948191191525L458.9681044375001,333.03750855324034L470.7395356875,333.4400768261373L482.51096693750003,334.3558305908767L494.2823981875,334.85626406865805L506.05382943750004,334.3396127871355L517.8252606875,334.8736469945864L529.5966919375,335.3819688089464L541.3681231875,336.1165984567882L553.1395544375,336.5952357850349L564.9109856875,336.9359833114887L576.6824169375001,337.9197444742478L588.4538481875001,337.32998331505655L600.2252794375,337.70646864376556L611.9967106875,338.52185715390146L623.7681419375,338.2497222726372L635.5395731875001,337.71441468539354L647.3110044375001,338.1279138659593" style="fill: none;" fill="none"></path></g></g></g></g><g opacity="0.2"><g><g><g><path stroke="rgb(238, 51, 119)" stroke-width="2px" d="M70.5108731875,74.26513864312858L82.2823044375,246.98999007684844L94.0537356875,266.63819846617326L105.82516693750001,276.5007490536997L117.5965981875,282.80788356491496L129.3680294375,291.6798062867352L141.13946068750002,295.0004912093282L152.9108919375,298.3305256526385L164.6823231875,298.8223184677107L176.4537544375,302.33226096310784L188.22518568750002,304.986762439566L199.99661693750002,306.1217761976378L211.76804818750003,308.5209615241204L223.5394794375,315.7299636442747L235.3109106875,316.3637146864619L247.08234193750002,322.5746454383646L258.8537731875,323.3544476308993L270.62520443750003,325.2466020286083L282.3966356875,325.95303255319595L294.1680669375,326.4730043421899L305.9394981875,326.4177398468767L317.7109294375,329.44146713827337L329.48236068750003,333.2144100463816L341.2537919375,331.3310133005892L353.02522318750005,332.4820275796311L364.79665443749997,334.03659606405665L376.5680856875,334.37760277837515L388.3395169375,335.7154469649707L400.1109481875,334.14065462457285L411.88237943750005,335.41422587207387L423.6538106875,331.5451293630259L435.42524193750006,335.5925689829247L447.19667318750004,336.8471302070788L458.9681044375001,336.06534174297536L470.7395356875,335.6424264056342L482.51096693750003,336.57482040034876L494.2823981875,337.7222333082131L506.05382943750004,336.28010986426045L517.8252606875,335.6456365415028L529.5966919375,335.7698888629675L541.3681231875,337.3082160662328L553.1395544375,338.96570953194583L564.9109856875,340.3532706978066L576.6824169375001,339.5043602990253L588.4538481875001,336.21189447705234L600.2252794375,339.8501521221229L611.9967106875,338.4346728058798L623.7681419375,341.78317556210925L635.5395731875001,339.1039159127644L647.3110044375001,339.6242789370673" style="fill: none;" fill="none"></path></g><g><path stroke="rgb(51, 187, 238)" stroke-width="2px" d="M70.5108731875,-2.312532122646047L82.2823044375,215.57812844855445L94.0537356875,242.52683786196368L105.82516693750001,258.27116992643903L117.5965981875,263.9296563587019L129.3680294375,272.0670999937824L141.13946068750002,270.9580783045718L152.9108919375,281.47603831972395L164.6823231875,287.62727057614495L176.4537544375,295.68070896821365L188.22518568750002,307.1952857588019L199.99661693750002,305.07885321229696L211.76804818750003,310.6054532187326L223.5394794375,315.70320916814467L235.3109106875,313.9668767718332L247.08234193750002,317.2487491454397L258.8537731875,315.20393272382876L270.62520443750003,316.610343406243L282.3966356875,320.9312765704734L294.1680669375,323.90931961578985L305.9394981875,324.4432655274868L317.7109294375,327.48105722665787L329.48236068750003,328.7595640580569L341.2537919375,327.88383899309804L353.02522318750005,326.9425569346973L364.79665443749997,331.06906621370996L376.5680856875,330.2371394400086L388.3395169375,332.31698646928584L400.1109481875,334.5217278472015L411.88237943750005,333.0219323060342L423.6538106875,331.92046446778943L435.42524193750006,333.072833022901L447.19667318750004,335.06623711224114L458.9681044375001,335.14962039142847L470.7395356875,335.65122418424914L482.51096693750003,337.36894782419716L494.2823981875,337.2904098438365L506.05382943750004,335.1000338239329L517.8252606875,337.56188702157567L529.5966919375,336.19356660757745L541.3681231875,337.9663741726961L553.1395544375,339.04213082896814L564.9109856875,339.2766613491944L576.6824169375001,338.9145078648414L588.4538481875001,337.01735769318685L600.2252794375,337.90475962736775L611.9967106875,339.8137672383871L623.7681419375,338.16264388603827L635.5395731875001,339.49404773754736L647.3110044375001,339.65041144937277" style="fill: none;" fill="none"></path></g><g><path stroke="rgb(204, 51, 17)" stroke-width="2px" d="M82.2823044375,-30.638811154024893L94.0537356875,32.87003535032272L105.82516693750001,150.09765662040033L117.5965981875,220.4894557573966L129.3680294375,234.9897999827351L141.13946068750002,241.0898406037263L152.9108919375,248.1056326712881L164.6823231875,252.32870684989862L176.4537544375,258.0798458286694L188.22518568750002,262.26724737243995L199.99661693750002,265.2460026666522L211.76804818750003,267.0490356673088L223.5394794375,266.33566322390527L235.3109106875,273.79566787396163L247.08234193750002,272.2224705698235L258.8537731875,276.0987096311791L270.62520443750003,282.5346909708211L282.3966356875,287.9232451032315L294.1680669375,289.9467943747129L305.9394981875,290.54122125250956L317.7109294375,293.8554558083415L329.48236068750003,295.2202952312572L341.2537919375,300.30363566428423L353.02522318750005,298.2811898770077L364.79665443749997,302.9768963722246L376.5680856875,302.38085439481904L388.3395169375,304.8111078175051L400.1109481875,305.4310954021556L411.88237943750005,302.8019339357104L423.6538106875,304.5129463853581L435.42524193750006,311.3750933249082L447.19667318750004,310.1211841596024L458.9681044375001,310.2960462793708L470.7395356875,309.55034174876556L482.51096693750003,309.8091890481966L494.2823981875,310.1872728317976L506.05382943750004,314.28752921840976L517.8252606875,310.57833760231733L529.5966919375,311.28818892794L541.3681231875,316.211734816432L553.1395544375,316.43300346285105L564.9109856875,316.0878536669271L576.6824169375001,316.3365388799991L588.4538481875001,320.44939504989554L600.2252794375,317.01977617293596L611.9967106875,320.58734060717484L623.7681419375,317.93377207645347L635.5395731875001,318.69413288363387L647.3110044375001,322.71917177417447" style="fill: none;" fill="none"></path></g><g><path stroke="rgb(0, 119, 187)" stroke-width="2px" d="M70.5108731875,-49.18063618455611L82.2823044375,177.69252625746387L94.0537356875,228.42613548891887L105.82516693750001,269.0720632917115L117.5965981875,282.34300573276624L129.3680294375,289.20332690754105L141.13946068750002,290.5666916742921L152.9108919375,293.97273611596654L164.6823231875,298.6768491544894L176.4537544375,302.8017032071948L188.22518568750002,304.0398124850222L199.99661693750002,302.39491880259345L211.76804818750003,305.6946375252945L223.5394794375,306.711548378425L235.3109106875,308.16245956931795L247.08234193750002,310.70324198263035L258.8537731875,314.6750427761248L270.62520443750003,309.41870611480306L282.3966356875,312.56749829330613L294.1680669375,317.2016805282661L305.9394981875,319.7065595782229L317.7109294375,324.3300681114197L329.48236068750003,325.7403409885509L341.2537919375,324.4670807229621L353.02522318750005,325.48896728668893L364.79665443749997,326.7177170121244L376.5680856875,329.1479704348104L388.3395169375,328.53822518991575L400.1109481875,329.898700834385L411.88237943750005,331.9497268625668L423.6538106875,331.75106961067235L435.42524193750006,332.72960930849825L447.19667318750004,335.6719195289271L458.9681044375001,332.884548522532L470.7395356875,334.0439292181816L482.51096693750003,335.7294612143721L494.2823981875,335.60691427758763L506.05382943750004,333.56463586964776L517.8252606875,335.6746983027884L529.5966919375,336.1444515287876L541.3681231875,337.21854292707786L553.1395544375,337.3131917768291L564.9109856875,337.4471046009234L576.6824169375001,339.3953862179603L588.4538481875001,336.44534157642295L600.2252794375,338.27119663677047L611.9967106875,339.744939919029L623.7681419375,337.84151995075604L635.5395731875001,336.9114533045462L647.3110044375001,338.74816263679946" style="fill: none;" fill="none"></path></g></g></g></g></g></g><g transform="translate(61, 377)" clip-path="url(#clip_1)"><clipPath id="clip_1"><rect width="706" height="22"></rect></clipPath><g><g><line x1="0" y1="0" x2="0" y2="5" style="visibility: inherit;" fill="rgb(0, 0, 0)" stroke="rgb(204, 204, 204)" stroke-width="1px"></line><line x1="58.85715625" y1="0" x2="58.85715625" y2="5" style="visibility: inherit;" fill="rgb(0, 0, 0)" stroke="rgb(204, 204, 204)" stroke-width="1px"></line><line x1="117.7143125" y1="0" x2="117.7143125" y2="5" style="visibility: inherit;" fill="rgb(0, 0, 0)" stroke="rgb(204, 204, 204)" stroke-width="1px"></line><line x1="176.57146875" y1="0" x2="176.57146875" y2="5" style="visibility: inherit;" fill="rgb(0, 0, 0)" stroke="rgb(204, 204, 204)" stroke-width="1px"></line><line x1="235.428625" y1="0" x2="235.428625" y2="5" style="visibility: inherit;" fill="rgb(0, 0, 0)" stroke="rgb(204, 204, 204)" stroke-width="1px"></line><line x1="294.28578125" y1="0" x2="294.28578125" y2="5" style="visibility: inherit;" fill="rgb(0, 0, 0)" stroke="rgb(204, 204, 204)" stroke-width="1px"></line><line x1="353.1429375" y1="0" x2="353.1429375" y2="5" style="visibility: inherit;" fill="rgb(0, 0, 0)" stroke="rgb(204, 204, 204)" stroke-width="1px"></line><line x1="412.00009375" y1="0" x2="412.00009375" y2="5" style="visibility: inherit;" fill="rgb(0, 0, 0)" stroke="rgb(204, 204, 204)" stroke-width="1px"></line><line x1="470.85725" y1="0" x2="470.85725" y2="5" style="visibility: inherit;" fill="rgb(0, 0, 0)" stroke="rgb(204, 204, 204)" stroke-width="1px"></line><line x1="529.71440625" y1="0" x2="529.71440625" y2="5" style="visibility: inherit;" fill="rgb(0, 0, 0)" stroke="rgb(204, 204, 204)" stroke-width="1px"></line><line x1="588.5715625" y1="0" x2="588.5715625" y2="5" style="visibility: inherit;" fill="rgb(0, 0, 0)" stroke="rgb(204, 204, 204)" stroke-width="1px"></line><line x1="647.42871875" y1="0" x2="647.42871875" y2="5" style="visibility: inherit;" fill="rgb(0, 0, 0)" stroke="rgb(204, 204, 204)" stroke-width="1px"></line><line x1="706.285875" y1="0" x2="706.285875" y2="5" style="visibility: inherit;" fill="rgb(0, 0, 0)" stroke="rgb(204, 204, 204)" stroke-width="1px"></line></g><g transform="translate(0, 8)"><text x="0" y="0" dx="0em" dy="0.95em" style="text-anchor: middle; visibility: hidden; font-family: Roboto, sans-serif; font-size: 12px; font-weight: 200;" fill="rgb(33, 33, 33)" stroke="none" stroke-width="1px">-500</text><text x="58.85715625" y="0" dx="0em" dy="0.95em" style="text-anchor: middle; visibility: inherit; font-family: Roboto, sans-serif; font-size: 12px; font-weight: 200;" fill="rgb(33, 33, 33)" stroke="none" stroke-width="1px">0</text><text x="117.7143125" y="0" dx="0em" dy="0.95em" style="text-anchor: middle; visibility: inherit; font-family: Roboto, sans-serif; font-size: 12px; font-weight: 200;" fill="rgb(33, 33, 33)" stroke="none" stroke-width="1px">500</text><text x="176.57146875" y="0" dx="0em" dy="0.95em" style="text-anchor: middle; visibility: inherit; font-family: Roboto, sans-serif; font-size: 12px; font-weight: 200;" fill="rgb(33, 33, 33)" stroke="none" stroke-width="1px">1k</text><text x="235.428625" y="0" dx="0em" dy="0.95em" style="text-anchor: middle; visibility: inherit; font-family: Roboto, sans-serif; font-size: 12px; font-weight: 200;" fill="rgb(33, 33, 33)" stroke="none" stroke-width="1px">1.5k</text><text x="294.28578125" y="0" dx="0em" dy="0.95em" style="text-anchor: middle; visibility: inherit; font-family: Roboto, sans-serif; font-size: 12px; font-weight: 200;" fill="rgb(33, 33, 33)" stroke="none" stroke-width="1px">2k</text><text x="353.1429375" y="0" dx="0em" dy="0.95em" style="text-anchor: middle; visibility: inherit; font-family: Roboto, sans-serif; font-size: 12px; font-weight: 200;" fill="rgb(33, 33, 33)" stroke="none" stroke-width="1px">2.5k</text><text x="412.00009375" y="0" dx="0em" dy="0.95em" style="text-anchor: middle; visibility: inherit; font-family: Roboto, sans-serif; font-size: 12px; font-weight: 200;" fill="rgb(33, 33, 33)" stroke="none" stroke-width="1px">3k</text><text x="470.85725" y="0" dx="0em" dy="0.95em" style="text-anchor: middle; visibility: inherit; font-family: Roboto, sans-serif; font-size: 12px; font-weight: 200;" fill="rgb(33, 33, 33)" stroke="none" stroke-width="1px">3.5k</text><text x="529.71440625" y="0" dx="0em" dy="0.95em" style="text-anchor: middle; visibility: inherit; font-family: Roboto, sans-serif; font-size: 12px; font-weight: 200;" fill="rgb(33, 33, 33)" stroke="none" stroke-width="1px">4k</text><text x="588.5715625" y="0" dx="0em" dy="0.95em" style="text-anchor: middle; visibility: inherit; font-family: Roboto, sans-serif; font-size: 12px; font-weight: 200;" fill="rgb(33, 33, 33)" stroke="none" stroke-width="1px">4.5k</text><text x="647.42871875" y="0" dx="0em" dy="0.95em" style="text-anchor: middle; visibility: inherit; font-family: Roboto, sans-serif; font-size: 12px; font-weight: 200;" fill="rgb(33, 33, 33)" stroke="none" stroke-width="1px">5k</text><text x="706.285875" y="0" dx="0em" dy="0.95em" style="text-anchor: middle; visibility: hidden; font-family: Roboto, sans-serif; font-size: 12px; font-weight: 200;" fill="rgb(33, 33, 33)" stroke="none" stroke-width="1px">5.5k</text></g><line x1="0" y1="0" x2="706.285875" y2="0" fill="rgb(0, 0, 0)" stroke="rgb(204, 204, 204)" stroke-width="1px"></line></g></g></g></g></svg>